<svg width="26" height="26" viewBox="0 0 26 26" fill="none" xmlns="http://www.w3.org/2000/svg">
<path d="M5.93833 2.13683C5.8424 2.01466 5.72132 1.91411 5.58312 1.84183C5.44492 1.76956 5.29277 1.72722 5.13677 1.71764C4.98078 1.70805 4.8245 1.73143 4.67834 1.78623C4.53217 1.84104 4.39946 1.926 4.28901 2.03548L2.60881 3.70048C1.82396 4.47909 1.53472 5.58105 1.87758 6.54788C3.30061 10.5497 5.61544 14.1829 8.65037 17.1782C11.6759 20.1827 15.3459 22.4744 19.388 23.8832C20.3646 24.2227 21.4777 23.9363 22.2642 23.1593L23.9444 21.4959C24.055 21.3866 24.1408 21.2552 24.1962 21.1105C24.2515 20.9658 24.2751 20.8111 24.2654 20.6566C24.2558 20.5022 24.213 20.3516 24.14 20.2147C24.067 20.0779 23.9654 19.9581 23.842 19.8631L20.0933 16.9771C19.9614 16.8759 19.8081 16.8056 19.6448 16.7716C19.4816 16.7376 19.3126 16.7408 19.1508 16.7808L15.5922 17.6608C15.1171 17.7783 14.6195 17.7721 14.1476 17.6427C13.6758 17.5133 13.2458 17.2651 12.8996 16.9224L8.90874 12.9698C8.56225 12.6272 8.31129 12.2016 8.18029 11.7345C8.0493 11.2674 8.04274 10.7746 8.16126 10.3042L9.05173 6.78114C9.09221 6.62091 9.09539 6.45367 9.06105 6.29204C9.02671 6.13041 8.95574 5.97861 8.85349 5.8481L5.93833 2.13683ZM3.06217 0.82252C3.34653 0.540916 3.68815 0.322424 4.06434 0.181552C4.44053 0.0406793 4.8427 -0.0193498 5.24412 0.00545033C5.64555 0.0302505 6.03705 0.139313 6.39263 0.325394C6.74822 0.511476 7.05975 0.77032 7.30654 1.08474L10.2217 4.7944C10.7563 5.47488 10.9448 6.36127 10.7336 7.1978L9.84471 10.7208C9.79875 10.9033 9.80123 11.0945 9.85191 11.2757C9.90259 11.4569 9.99975 11.6221 10.1339 11.7552L14.1264 15.7078C14.2611 15.8409 14.4282 15.9373 14.6116 15.9875C14.795 16.0376 14.9884 16.04 15.1729 15.9942L18.7299 15.1142C19.1469 15.011 19.5821 15.003 20.0027 15.0908C20.4233 15.1786 20.8182 15.3598 21.1576 15.6209L24.9047 18.507C26.2518 19.5446 26.3753 21.5152 25.1696 22.7073L23.4894 24.3707C22.2869 25.5611 20.4897 26.0839 18.8144 25.5C14.5265 24.0063 10.6333 21.5761 7.42353 18.3895C4.20498 15.2124 1.7502 11.3586 0.241258 7.11414C-0.346974 5.45718 0.181135 3.67635 1.3836 2.48592L3.06379 0.82252H3.06217Z" fill="#FA9250"/>
</svg>
