<svg width="99" height="49" viewBox="0 0 99 49" fill="none" xmlns="http://www.w3.org/2000/svg">
<path d="M57.1155 20.9424C57.1155 31.3193 46.8238 39.9335 33.3174 41.5952C31.7695 41.7856 28.5578 41.8847 28.5578 41.8847C27.918 41.8847 24.4274 41.6255 23.7981 41.5952C8.91377 40.8767 0 32.0394 0 20.9424C0 9.37621 12.7857 0 28.5578 0C44.3298 0 57.1155 9.37621 57.1155 20.9424Z" fill="#9BEDE4"/>
<path d="M33.3174 41.5952C31.7695 41.7856 28.5578 41.8847 28.5578 41.8847C27.918 41.8847 24.4274 41.6255 23.7981 41.5952C23.6539 43.8797 25.5974 45.6204 22.8462 48.5482C28.7866 46.374 30.9805 44.8216 33.3174 41.5952Z" fill="#9BEDE4"/>
<path d="M41.8845 20.5317C41.8845 30.7052 52.1762 39.1504 65.6826 40.7796C67.2305 40.9663 70.4422 41.0634 70.4422 41.0634C71.082 41.0634 73.6207 40.8093 74.2499 40.7796C89.1343 40.0752 99 31.4111 99 20.5317C99 9.19237 86.2143 0 70.4422 0C54.6702 0 41.8845 9.19237 41.8845 20.5317Z" fill="#FFE57B"/>
<path d="M65.6826 40.7796C67.2305 40.9663 70.4422 41.0634 70.4422 41.0634C71.082 41.0634 73.6207 40.8093 74.2499 40.7796C74.3941 43.0193 73.4026 44.7259 76.1538 47.5963C70.2134 45.4647 68.0195 43.9427 65.6826 40.7796Z" fill="#FFE57B"/>
<path d="M11.04 33.4849L10.1879 30.8934L13.98 23.9727C14.251 23.4821 14.4312 23.0678 14.5207 22.7296C14.6242 22.3868 14.6671 22.0947 14.6495 21.8535C14.6413 21.5937 14.6052 21.3663 14.541 21.1713C14.3853 20.6975 14.1036 20.381 13.6961 20.2216C13.3026 20.0577 12.7923 20.0788 12.1653 20.285C11.6359 20.4591 11.1802 20.7401 10.7983 21.1281C10.4164 21.5162 10.157 21.9952 10.0202 22.5651L6.38451 21.8615C6.62554 20.7633 7.16994 19.766 8.01772 18.8697C8.86551 17.9733 10.0069 17.2893 11.442 16.8174C12.5706 16.4463 13.6194 16.3022 14.5884 16.385C15.5574 16.4678 16.3887 16.7657 17.0823 17.2787C17.7899 17.7871 18.2925 18.4942 18.5903 19.3998C18.7461 19.8735 18.8391 20.3679 18.8695 20.8828C18.8953 21.3838 18.8141 21.9586 18.6259 22.6072C18.4471 23.2372 18.1147 23.9872 17.6288 24.8572L14.6012 30.2992L13.4305 29.063L21.3513 26.4586L22.4301 29.7398L11.04 33.4849Z" fill="#FF914D"/>
<path d="M25.9124 27.9985L19.2986 13.2216L23.7609 12.7412L29.3658 25.5468L27.1128 25.7894L30.0823 12.0606L34.0633 11.632L39.6464 24.44L37.4809 24.6731L40.3629 10.9538L44.497 10.5087L41.1802 26.3548L36.5429 26.8541L31.7866 15.9706L33.0334 15.8364L30.5496 27.4993L25.9124 27.9985Z" fill="#FF914D"/>
<path d="M44.211 26.1445L52.2319 11.3446L56.5078 11.6914L62.0603 27.5924L57.5432 27.226L53.3092 13.573L55.0196 13.7117L48.6404 26.5038L44.211 26.1445ZM48.1587 23.4629L49.5368 20.3521L57.0361 20.9605L57.8947 24.2527L48.1587 23.4629Z" fill="#FF914D"/>
<path d="M65.6315 29.2253L66.8105 22.821L67.3318 25.5789L62.6429 13.0163L67.1649 13.8488L70.545 22.9493L67.927 22.4673L74.3482 15.1713L78.5023 15.9361L69.6685 26.0091L71.0945 23.6097L69.9155 30.014L65.6315 29.2253Z" fill="#FF914D"/>
<path d="M80.0445 33.3848C78.8585 32.9552 77.7664 32.3958 76.7681 31.7067C75.7886 31.0087 75.039 30.3004 74.5193 29.5818L76.9577 27.0488C77.456 27.6973 78.0758 28.3117 78.8171 28.8922C79.5771 29.4639 80.3778 29.9021 81.219 30.2068C81.7843 30.4116 82.2569 30.5281 82.6366 30.5565C83.0213 30.571 83.3195 30.523 83.5311 30.4125C83.7615 30.2931 83.9192 30.1163 84.0041 29.8818C84.124 29.5509 84.0672 29.2339 83.8337 28.931C83.6003 28.628 83.2647 28.3271 82.827 28.0282C82.3893 27.7292 81.8965 27.4103 81.3484 27.0714C80.8142 26.7376 80.2856 26.3667 79.7626 25.9589C79.2533 25.556 78.8123 25.1155 78.4395 24.6373C78.0718 24.1453 77.8261 23.5962 77.7025 22.9898C77.584 22.3697 77.6645 21.6735 77.9442 20.9013C78.2589 20.0325 78.778 19.3314 79.5016 18.798C80.239 18.2695 81.1609 17.9638 82.2672 17.881C83.3736 17.7981 84.6369 18.0139 86.0573 18.5284C87.0088 18.8731 87.8997 19.3205 88.7299 19.8708C89.5789 20.4123 90.287 21.0198 90.8543 21.6932L88.4911 24.2769C87.9365 23.6548 87.3538 23.1318 86.743 22.7077C86.1372 22.2699 85.5172 21.9362 84.8828 21.7064C84.3174 21.5016 83.8399 21.3988 83.4502 21.3981C83.0655 21.3835 82.7623 21.4453 82.5407 21.5834C82.3191 21.7215 82.1633 21.9147 82.0734 22.1629C81.9585 22.4801 82.0109 22.7877 82.2306 23.0856C82.469 23.3748 82.8071 23.6688 83.2448 23.9677C83.7013 24.2579 84.1966 24.5699 84.7309 24.9038C85.2789 25.2427 85.8075 25.6135 86.3167 26.0164C86.8448 26.4104 87.2927 26.8534 87.6605 27.3454C88.0332 27.8236 88.272 28.3703 88.3768 28.9854C88.5003 29.5917 88.4248 30.2741 88.15 31.0325C87.8454 31.8737 87.3218 32.5655 86.5794 33.1077C85.8559 33.6412 84.9409 33.9493 83.8345 34.0322C82.742 34.12 81.4786 33.9042 80.0445 33.3848Z" fill="#FF914D"/>
</svg>
