<svg width="154" height="23" viewBox="0 0 154 23" fill="none" xmlns="http://www.w3.org/2000/svg">
<path d="M1.99902 9.76514C1.1706 9.76514 0.499023 10.4367 0.499023 11.2651C0.499023 12.0936 1.1706 12.7651 1.99902 12.7651V9.76514ZM153.06 12.3258C153.645 11.74 153.645 10.7903 153.06 10.2045L143.514 0.658535C142.928 0.0727486 141.978 0.0727486 141.392 0.658535C140.807 1.24432 140.807 2.19407 141.392 2.77986L149.878 11.2651L141.392 19.7504C140.807 20.3362 140.807 21.286 141.392 21.8717C141.978 22.4575 142.928 22.4575 143.514 21.8717L153.06 12.3258ZM1.99902 12.7651H151.999V9.76514H1.99902V12.7651Z" fill="#FA9250"/>
</svg>
