<svg width="150" height="74" viewBox="0 0 150 74" fill="none" xmlns="http://www.w3.org/2000/svg">
<g clip-path="url(#clip0_216_171)">
<path d="M86.5386 31.6273C86.5386 47.2985 70.9452 60.3077 50.4809 62.8172C48.1356 63.1048 43.2694 63.2544 43.2694 63.2544C42.3 63.2544 37.0112 62.863 36.0577 62.8172C13.5057 61.7322 0 48.386 0 31.6273C0 14.16 19.3723 0 43.2694 0C67.1664 0 86.5386 14.16 86.5386 31.6273Z" fill="#9BEDE4"/>
<path d="M50.4807 62.8173C48.1354 63.1048 43.2692 63.2545 43.2692 63.2545C42.2998 63.2545 37.011 62.863 36.0575 62.8173C35.839 66.2673 38.7837 68.8961 34.6152 73.3177C43.6158 70.0342 46.9399 67.6898 50.4807 62.8173Z" fill="#9BEDE4"/>
<path d="M63.4609 31.0071C63.4609 46.3711 79.0544 59.1251 99.5187 61.5855C101.864 61.8675 106.73 62.0141 106.73 62.0141C107.7 62.0141 111.546 61.6304 112.499 61.5855C135.052 60.5217 150 47.4372 150 31.0071C150 13.8824 130.627 0 106.73 0C82.8332 0 63.4609 13.8824 63.4609 31.0071Z" fill="#FFE57B"/>
<path d="M99.5195 61.5855C101.865 61.8675 106.731 62.0141 106.731 62.0141C107.7 62.0141 111.547 61.6304 112.5 61.5855C112.719 64.9679 111.216 67.5452 115.385 71.8801C106.384 68.661 103.06 66.3624 99.5195 61.5855Z" fill="#FFE57B"/>
<path d="M16.7276 50.569L15.4365 46.6553L21.1821 36.2036C21.5928 35.4629 21.8658 34.8371 22.0014 34.3263C22.1582 33.8086 22.2232 33.3676 22.1965 33.0032C22.1841 32.611 22.1294 32.2675 22.0321 31.973C21.7962 31.2576 21.3694 30.7794 20.752 30.5389C20.1558 30.2912 19.3826 30.3231 18.4326 30.6345C17.6305 30.8974 16.94 31.3218 16.3614 31.9079C15.7828 32.4938 15.3897 33.2172 15.1824 34.0779L9.67383 33.0153C10.039 31.3568 10.8639 29.8507 12.1484 28.4971C13.4329 27.1435 15.1623 26.1103 17.3367 25.3977C19.0467 24.8372 20.6358 24.6196 22.104 24.7447C23.5721 24.8697 24.8317 25.3196 25.8826 26.0943C26.9547 26.8623 27.7162 27.93 28.1674 29.2976C28.4035 30.0132 28.5444 30.7597 28.5905 31.5373C28.6296 32.294 28.5065 33.1619 28.2214 34.1415C27.9505 35.0929 27.4468 36.2257 26.7106 37.5394L22.1234 45.758L20.3496 43.891L32.3508 39.9579L33.9853 44.9131L16.7276 50.569Z" fill="#FF914D"/>
<path d="M39.2611 42.2836L29.2402 19.9675L36.0013 19.242L44.4936 38.581L41.0799 38.9472L45.5792 18.2141L51.611 17.5668L60.0702 36.9095L56.7892 37.2616L61.1558 16.5426L67.4196 15.8704L62.3942 39.8013L55.368 40.5552L48.1614 24.119L50.0505 23.9163L46.2872 41.5297L39.2611 42.2836Z" fill="#FF914D"/>
<path d="M66.9863 39.4833L79.1392 17.1324L85.6178 17.6563L94.0307 41.67L87.1866 41.1165L80.7715 20.4977L83.363 20.7073L73.6975 40.026L66.9863 39.4833ZM72.9677 35.4335L75.0557 30.7357L86.4183 31.6544L87.7192 36.6263L72.9677 35.4335Z" fill="#FF914D"/>
<path d="M99.4434 44.1362L101.23 34.4644L102.02 38.6294L94.915 19.6573L101.767 20.9145L106.888 34.658L102.921 33.9302L112.65 22.9118L118.945 24.0668L105.56 39.2791L107.721 35.6553L105.934 45.3273L99.4434 44.1362Z" fill="#FF914D"/>
<path d="M121.281 50.4182C119.484 49.7694 117.829 48.9246 116.316 47.8839C114.832 46.8298 113.697 45.7601 112.909 44.6749L116.604 40.8495C117.359 41.8289 118.298 42.7568 119.421 43.6334C120.573 44.4968 121.786 45.1586 123.06 45.6187C123.917 45.928 124.633 46.104 125.208 46.1469C125.791 46.1688 126.243 46.0963 126.563 45.9294C126.913 45.7491 127.151 45.4821 127.28 45.1279C127.462 44.6282 127.376 44.1495 127.022 43.692C126.668 43.2344 126.16 42.78 125.497 42.3286C124.833 41.8771 124.087 41.3955 123.256 40.8836C122.447 40.3795 121.646 39.8194 120.853 39.2035C120.082 38.5951 119.414 37.9298 118.849 37.2077C118.292 36.4646 117.919 35.6352 117.732 34.7196C117.553 33.7831 117.675 32.7317 118.098 31.5655C118.575 30.2535 119.362 29.1947 120.458 28.389C121.575 27.591 122.972 27.1293 124.648 27.0043C126.325 26.8791 128.239 27.205 130.391 27.982C131.833 28.5025 133.183 29.1782 134.44 30.0093C135.727 30.827 136.8 31.7445 137.659 32.7615L134.079 36.6634C133.238 35.7239 132.355 34.934 131.43 34.2936C130.512 33.6324 129.573 33.1284 128.611 32.7814C127.755 32.4721 127.031 32.3169 126.441 32.3158C125.858 32.2938 125.399 32.3871 125.063 32.5956C124.727 32.8042 124.491 33.096 124.355 33.4708C124.181 33.9498 124.26 34.4144 124.593 34.8643C124.954 35.301 125.466 35.745 126.13 36.1964C126.821 36.6347 127.572 37.1059 128.381 37.6101C129.211 38.1219 130.013 38.6819 130.784 39.2904C131.584 39.8854 132.263 40.5544 132.82 41.2974C133.385 42.0196 133.747 42.8453 133.905 43.7742C134.093 44.6898 133.978 45.7204 133.562 46.8657C133.1 48.1361 132.307 49.1809 131.182 49.9997C130.086 50.8054 128.699 51.2707 127.023 51.3959C125.368 51.5285 123.454 51.2026 121.281 50.4182Z" fill="#FF914D"/>
</g>
<defs>
<clipPath id="clip0_216_171">
<rect width="150" height="74" fill="white"/>
</clipPath>
</defs>
</svg>
