<svg width="30" height="31" viewBox="0 0 30 31" fill="none" xmlns="http://www.w3.org/2000/svg">
<path d="M25.6171 4.38106C24.2356 2.98668 22.5903 1.8812 20.7772 1.12906C18.9641 0.376912 17.0194 -0.0068639 15.0565 9.29128e-05C6.83136 9.29128e-05 0.128076 6.7015 0.120542 14.9285C0.120542 17.5635 0.809894 20.1269 2.11138 22.3965L0 30.1357L7.91813 28.0601C10.1086 29.2522 12.5626 29.877 15.0565 29.8777H15.064C23.2911 29.8777 29.9925 23.1763 30 14.9417C30.0019 12.9792 29.6154 11.0357 28.8629 9.22324C28.1103 7.41076 27.0085 5.76509 25.6171 4.38106ZM15.0565 27.35C12.8321 27.3508 10.6486 26.7522 8.73556 25.6172L8.28352 25.346L3.58614 26.5778L4.84053 21.9953L4.54671 21.5226C3.30325 19.5455 2.64562 17.2565 2.65005 14.921C2.65005 8.0915 8.21949 2.52018 15.064 2.52018C16.6946 2.51726 18.3097 2.83712 19.8161 3.46134C21.3225 4.08556 22.6904 5.00177 23.841 6.15717C24.9957 7.30807 25.911 8.67618 26.5343 10.1826C27.1575 11.689 27.4763 13.3039 27.4724 14.9342C27.4648 21.7881 21.8954 27.35 15.0565 27.35ZM21.8653 18.057C21.4942 17.8705 19.6616 16.9683 19.3169 16.8402C18.9741 16.7178 18.7236 16.6538 18.4788 17.0267C18.2283 17.3978 17.5126 18.2434 17.2978 18.4864C17.0831 18.7369 16.8609 18.7652 16.4879 18.5806C16.1169 18.3922 14.9134 18.0005 13.4894 16.7254C12.3782 15.7365 11.6342 14.5123 11.412 14.1412C11.1973 13.7683 11.3913 13.5686 11.5777 13.3822C11.7416 13.2164 11.9488 12.9452 12.1352 12.7305C12.3236 12.5158 12.3857 12.3576 12.5082 12.109C12.6306 11.8566 12.5722 11.6419 12.4799 11.4554C12.3857 11.2689 11.6418 9.42877 11.3272 8.68668C11.0259 7.95401 10.7189 8.05572 10.4891 8.0463C10.2744 8.03311 10.0239 8.03311 9.77335 8.03311C9.58418 8.03782 9.39803 8.08157 9.22657 8.16163C9.05511 8.24168 8.90205 8.35632 8.77699 8.49833C8.4342 8.87126 7.47551 9.77345 7.47551 11.6136C7.47551 13.4538 8.81278 15.2223 9.00113 15.4728C9.18571 15.7233 11.6267 19.4884 15.3729 21.1082C16.2582 21.4943 16.955 21.7222 17.4994 21.8955C18.394 22.1818 19.202 22.1385 19.8462 22.0462C20.5619 21.9369 22.0517 21.1421 22.3663 20.2701C22.6752 19.3961 22.6752 18.6503 22.581 18.4939C22.4887 18.3357 22.2382 18.2434 21.8653 18.057Z" fill="white"/>
</svg>
