<svg width="24" height="23" viewBox="0 0 24 23" fill="none" xmlns="http://www.w3.org/2000/svg">
<path d="M17.0946 6.146C17.6876 5.931 17.9826 5.854 18.1446 5.826C18.1459 5.87933 18.1453 5.92 18.1426 5.948C17.9106 8.392 16.8916 14.405 16.3676 17.203C16.2456 17.858 16.1516 18.17 15.5176 17.798C15.1016 17.553 14.7256 17.245 14.3216 16.981C12.9966 16.112 11.1006 14.819 11.2566 14.897C9.95261 14.037 10.4986 13.511 11.2266 12.809C11.3436 12.696 11.4666 12.578 11.5866 12.453C11.6406 12.397 11.9036 12.153 12.2736 11.808C13.4616 10.704 15.7576 8.569 15.8156 8.322C15.8256 8.282 15.8336 8.13 15.7446 8.051C15.6546 7.971 15.5216 7.998 15.4266 8.02C15.2913 8.05066 13.1333 9.477 8.95261 12.299C8.34061 12.719 7.78594 12.9237 7.28861 12.913L7.29361 12.916C6.63861 12.685 5.98561 12.486 5.32961 12.286C4.8949 12.1555 4.46154 12.0205 4.02961 11.881L3.72161 11.783C8.24861 9.811 11.2636 8.513 12.7746 7.884C14.9686 6.971 16.2706 6.446 17.0946 6.146ZM19.5176 4.218C19.3048 4.04939 19.0566 3.9311 18.7916 3.872C18.5916 3.824 18.4016 3.809 18.2586 3.812C17.7816 3.82 17.2706 3.955 16.4126 4.266C15.5376 4.584 14.1936 5.128 12.0066 6.037C10.4633 6.679 7.39594 8.00033 2.80461 10.001C2.40061 10.162 2.03161 10.345 1.73961 10.561C1.46961 10.762 1.09261 11.121 1.02361 11.671C0.97161 12.087 1.09261 12.471 1.33861 12.774C1.55261 13.037 1.82661 13.197 2.03561 13.298C2.34561 13.448 2.76361 13.579 3.13061 13.694C3.70361 13.874 4.27461 14.057 4.84961 14.233C6.62761 14.777 8.09161 15.225 9.70161 16.287C10.8826 17.065 12.0416 17.877 13.2246 18.653C13.6566 18.936 14.0596 19.261 14.5046 19.523C14.9926 19.808 15.6106 20.069 16.3646 20C17.5026 19.895 18.0946 18.848 18.3346 17.57C18.8556 14.78 19.8916 8.684 20.1346 6.138C20.1568 5.84256 20.1444 5.54555 20.0976 5.253C20.0384 4.84833 19.8318 4.47977 19.5176 4.218Z" fill="#2D2D2D"/>
</svg>
