<svg width="20" height="20" viewBox="0 0 20 20" fill="none" xmlns="http://www.w3.org/2000/svg">
<path d="M15.8757 4.09167C15.1117 3.31994 14.2016 2.70806 13.1987 2.29171C12.1957 1.87536 11.1199 1.66288 10.034 1.66667C5.48398 1.66667 1.77565 5.375 1.77565 9.925C1.77565 11.3833 2.15898 12.8 2.87565 14.05L1.70898 18.3333L6.08398 17.1833C7.29232 17.8417 8.65065 18.1917 10.034 18.1917C14.584 18.1917 18.2923 14.4833 18.2923 9.93333C18.2923 7.725 17.434 5.65 15.8757 4.09167ZM10.034 16.7917C8.80065 16.7917 7.59232 16.4583 6.53398 15.8333L6.28398 15.6833L3.68398 16.3667L4.37565 13.8333L4.20898 13.575C3.52377 12.4808 3.15993 11.216 3.15898 9.925C3.15898 6.14167 6.24232 3.05833 10.0257 3.05833C11.859 3.05833 13.584 3.775 14.8757 5.075C15.5152 5.71164 16.0221 6.46889 16.3668 7.30286C16.7116 8.13682 16.8873 9.03092 16.884 9.93333C16.9007 13.7167 13.8173 16.7917 10.034 16.7917ZM13.8007 11.6583C13.5923 11.5583 12.5757 11.0583 12.3923 10.9833C12.2007 10.9167 12.0673 10.8833 11.9257 11.0833C11.784 11.2917 11.3923 11.7583 11.2757 11.8917C11.159 12.0333 11.034 12.05 10.8257 11.9417C10.6173 11.8417 9.95065 11.6167 9.16732 10.9167C8.55065 10.3667 8.14232 9.69167 8.01732 9.48333C7.90065 9.275 8.00065 9.16667 8.10898 9.05833C8.20065 8.96667 8.31732 8.81667 8.41732 8.7C8.51732 8.58333 8.55898 8.49167 8.62565 8.35833C8.69232 8.21667 8.65898 8.1 8.60898 8C8.55898 7.9 8.14232 6.88333 7.97565 6.46667C7.80898 6.06667 7.63398 6.11667 7.50898 6.10833H7.10898C6.96732 6.10833 6.75065 6.15833 6.55898 6.36667C6.37565 6.575 5.84232 7.075 5.84232 8.09167C5.84232 9.10833 6.58398 10.0917 6.68398 10.225C6.78398 10.3667 8.14232 12.45 10.209 13.3417C10.7007 13.5583 11.084 13.6833 11.384 13.775C11.8757 13.9333 12.3257 13.9083 12.684 13.8583C13.084 13.8 13.909 13.3583 14.0757 12.875C14.2507 12.3917 14.2507 11.9833 14.1923 11.8917C14.134 11.8 14.009 11.7583 13.8007 11.6583Z" fill="#2D2D2D"/>
</svg>
