<svg width="76" height="75" viewBox="0 0 76 75" fill="none" xmlns="http://www.w3.org/2000/svg">
<path d="M68.3662 56.997L58.6426 10.7666C58.5168 10.162 58.2728 9.58823 57.9247 9.07823C57.5765 8.56824 57.131 8.13207 56.6138 7.79477C56.0965 7.45747 55.5177 7.22569 54.9106 7.11276C54.3035 6.99982 53.6801 7.00795 53.0762 7.13667L39.3623 10.0839C38.1493 10.3495 37.0902 11.0834 36.4153 12.1258C35.7405 13.1682 35.5046 14.4349 35.7588 15.6503L45.4824 61.8808C45.6991 62.9356 46.2723 63.8835 47.1057 64.5654C47.9391 65.2473 48.9818 65.6214 50.0586 65.625C50.3914 65.6244 50.7233 65.5891 51.0488 65.5195L64.7627 62.5722C65.9772 62.306 67.0373 61.5707 67.7123 60.5265C68.3872 59.4823 68.6222 58.2137 68.3662 56.997ZM40.3438 14.6923V14.666L54.0547 11.7363L55.0303 16.3857L41.3193 19.3359L40.3438 14.6923ZM42.2832 23.9121L56 20.9677L56.9785 25.6259L43.2734 28.5732L42.2832 23.9121ZM44.2285 33.1611L57.9453 30.2138L61.8418 48.7412L48.125 51.6884L44.2285 33.1611ZM63.7812 57.9902L50.0703 60.9199L49.0947 56.2705L62.8057 53.3203L63.7812 57.9638V57.9902ZM30.9688 9.37495H16.9062C15.663 9.37495 14.4708 9.86881 13.5917 10.7479C12.7126 11.627 12.2188 12.8192 12.2188 14.0625V60.9375C12.2188 62.1807 12.7126 63.3729 13.5917 64.252C14.4708 65.1311 15.663 65.625 16.9062 65.625H30.9688C32.212 65.625 33.4042 65.1311 34.2833 64.252C35.1624 63.3729 35.6562 62.1807 35.6562 60.9375V14.0625C35.6562 12.8192 35.1624 11.627 34.2833 10.7479C33.4042 9.86881 32.212 9.37495 30.9688 9.37495ZM16.9062 14.0625H30.9688V18.75H16.9062V14.0625ZM16.9062 23.4375H30.9688V51.5625H16.9062V23.4375ZM30.9688 60.9375H16.9062V56.25H30.9688V60.9375Z" fill="#F9843B"/>
</svg>
