<svg width="76" height="75" viewBox="0 0 76 75" fill="none" xmlns="http://www.w3.org/2000/svg">
<path d="M52.9109 27.7066C52.0743 21.4218 48.8816 15.6895 43.9789 11.6694C39.0761 7.64932 32.8293 5.64166 26.5025 6.05262C20.1756 6.46359 14.2411 9.26249 9.89955 13.883C5.55804 18.5036 3.13376 24.6008 3.11719 30.9409C3.11719 36.8534 5.17031 42.2878 8.60469 46.5691C11.1297 49.7222 12.4922 53.2066 12.4922 56.8972V68.4409H40.6172L40.6203 59.0659H46.8672C48.5248 59.0659 50.1145 58.4075 51.2866 57.2354C52.4587 56.0633 53.1172 54.4735 53.1172 52.8159V43.6628L59.2422 41.0378C60.3109 40.5816 60.4047 39.4941 59.9422 38.7659L52.9109 27.7066ZM9.36719 30.9409C9.36239 26.176 11.1719 21.588 14.428 18.1092C17.6842 14.6304 22.1426 12.5217 26.8975 12.2118C31.6523 11.9018 36.3468 13.4138 40.027 16.4404C43.7072 19.4671 46.0971 23.7813 46.7109 28.5066L46.8891 29.8878L51.7109 37.4659L46.8672 39.5409V52.8159H34.3734L34.3672 62.1909H18.7422V56.8972C18.7422 51.7753 16.8953 46.9222 13.4766 42.6597C10.8087 39.3373 9.35856 35.2018 9.36719 30.9409ZM66.0984 56.2597L60.8953 52.7909C63.9814 48.1742 65.625 42.7441 65.6172 37.1909C65.6266 31.637 63.984 26.2058 60.8984 21.5878L66.0984 18.1191C69.8707 23.7634 71.8787 30.4022 71.8672 37.1909C71.8672 44.2472 69.7422 50.8034 66.0984 56.2597Z" fill="#F9843B"/>
</svg>
