<svg width="76" height="75" viewBox="0 0 76 75" fill="none" xmlns="http://www.w3.org/2000/svg">
<path d="M48.1185 33.7813L46.3404 39.0751C45.6793 41.0866 44.5553 42.9148 43.0589 44.4128C41.5626 45.9108 39.7355 47.0368 37.7248 47.7001L32.3716 49.4782C32.1907 49.5368 32.0329 49.6512 31.921 49.8051C31.8091 49.9589 31.7488 50.1442 31.7488 50.3345C31.7488 50.5247 31.8091 50.71 31.921 50.8639C32.0329 51.0177 32.1907 51.1321 32.3716 51.1907L37.7248 52.9688C39.7172 53.6318 41.5274 54.7505 43.0117 56.2358C44.4959 57.7211 45.6132 59.5322 46.2748 61.5251L48.0498 66.8845C48.1067 67.067 48.2205 67.2267 48.3745 67.34C48.5285 67.4533 48.7148 67.5145 48.906 67.5145C49.0973 67.5145 49.2835 67.4533 49.4375 67.34C49.5916 67.2267 49.7054 67.067 49.7623 66.8845L51.606 61.5907C52.2672 59.5982 53.3841 57.7873 54.8678 56.302C56.3514 54.8167 58.1611 53.6979 60.1529 53.0345L65.5091 51.2563C65.6901 51.1977 65.8479 51.0833 65.9598 50.9295C66.0717 50.7756 66.1319 50.5903 66.1319 50.4001C66.1319 50.2099 66.0717 50.0245 65.9598 49.8707C65.8479 49.7168 65.6901 49.6024 65.5091 49.5438L60.2216 47.7001C58.2097 47.039 56.3815 45.9138 54.8848 44.4155C53.3881 42.9172 52.2649 41.0877 51.606 39.0751L49.8279 33.7157C49.7774 33.5837 49.6968 33.4654 49.5924 33.3701C49.488 33.2749 49.3628 33.2053 49.2268 33.1671C49.0908 33.1288 48.9477 33.1229 48.809 33.1498C48.6703 33.1767 48.5398 33.2356 48.4279 33.322C48.2803 33.4413 48.1725 33.5994 48.1185 33.7813ZM21.7748 18.4282L20.4841 22.2751C20.0027 23.738 19.1847 25.0676 18.096 26.1569C17.0072 27.2462 15.6781 28.0648 14.2154 28.547L10.3216 29.8407C10.1915 29.8846 10.0784 29.9682 9.99823 30.0798C9.9181 30.1913 9.875 30.3252 9.875 30.4626C9.875 30.5999 9.9181 30.7338 9.99823 30.8454C10.0784 30.957 10.1915 31.0406 10.3216 31.0845L14.2154 32.3813C15.6643 32.8626 16.9809 33.6754 18.0605 34.755C19.1401 35.8346 19.9528 37.1512 20.4341 38.6001L21.7248 42.5001C21.7686 42.6302 21.8523 42.7434 21.9638 42.8235C22.0754 42.9036 22.2093 42.9467 22.3466 42.9467C22.484 42.9467 22.6179 42.9036 22.7295 42.8235C22.841 42.7434 22.9246 42.6302 22.9685 42.5001L24.3123 38.6501C24.7957 37.2023 25.6093 35.8869 26.6885 34.8076C27.7678 33.7283 29.0833 32.9148 30.531 32.4313L34.4216 31.1345C34.5518 31.0906 34.6649 31.007 34.7451 30.8954C34.8252 30.7838 34.8683 30.6499 34.8683 30.5126C34.8683 30.3752 34.8252 30.2413 34.7451 30.1298C34.6649 30.0182 34.5518 29.9346 34.4216 29.8907L30.5779 28.547C29.1146 28.0666 27.7849 27.2485 26.6964 26.159C25.6079 25.0694 24.7912 23.7389 24.3123 22.2751L23.0185 18.3782C22.9697 18.2495 22.8816 18.1395 22.7668 18.0636C22.6519 17.9877 22.5162 17.9499 22.3786 17.9554C22.2411 17.961 22.1088 18.0096 22.0005 18.0944C21.8921 18.1793 21.8131 18.296 21.7748 18.4282ZM46.3029 7.73446L45.656 9.65946C45.4169 10.3915 45.0089 11.0569 44.4649 11.602C43.9209 12.1471 43.2563 12.5564 42.5248 12.797L40.5779 13.4438C40.5291 13.4597 40.4848 13.4869 40.4486 13.5231C40.4123 13.5594 40.3852 13.6037 40.3693 13.6524C40.3535 13.7012 40.3494 13.753 40.3574 13.8037C40.3654 13.8543 40.3853 13.9023 40.4154 13.9438C40.4545 14.0014 40.5117 14.0443 40.5779 14.0657L42.5248 14.7126C43.2492 14.9532 43.9075 15.3596 44.4473 15.8994C44.9871 16.4392 45.3935 17.0975 45.6341 17.822L46.2779 19.772C46.2991 19.8382 46.3408 19.896 46.397 19.937C46.4531 19.9779 46.5209 20 46.5904 20C46.6599 20 46.7277 19.9779 46.7838 19.937C46.84 19.896 46.8817 19.8382 46.9029 19.772L47.5716 17.847C47.8123 17.1225 48.2187 16.4642 48.7585 15.9244C49.2983 15.3846 49.9566 14.9782 50.681 14.7376L52.6279 14.0907C52.6941 14.0695 52.7519 14.0278 52.7929 13.9716C52.8339 13.9155 52.856 13.8477 52.856 13.7782C52.856 13.7087 52.8339 13.6409 52.7929 13.5848C52.7519 13.5286 52.6941 13.4869 52.6279 13.4657L50.706 12.797C49.9739 12.5568 49.3086 12.1477 48.7641 11.6026C48.2195 11.0575 47.811 10.3918 47.5716 9.65946L46.9248 7.70946C46.9003 7.64512 46.8563 7.5901 46.7989 7.55216C46.7415 7.51423 46.6736 7.4953 46.6048 7.49807C46.5361 7.50083 46.4699 7.52514 46.4157 7.56757C46.3616 7.60999 46.3221 7.66837 46.3029 7.73446Z" stroke="#F9843B" stroke-width="4.6875" stroke-linecap="round" stroke-linejoin="round"/>
</svg>
