<svg width="75" height="75" viewBox="0 0 75 75" fill="none" xmlns="http://www.w3.org/2000/svg">
<path d="M14.5875 17.0859C14.4927 16.1098 14.6031 15.1247 14.9117 14.1939C15.2203 13.263 15.7202 12.407 16.3793 11.6808C17.0383 10.9546 17.842 10.3743 18.7387 9.97721C19.6354 9.58011 20.6053 9.37498 21.5859 9.375H32.8125C33.4341 9.375 34.0302 9.62193 34.4698 10.0615C34.9093 10.501 35.1562 11.0971 35.1562 11.7188V13.5094C35.1562 16.7719 32.8266 19.05 31.0687 20.3953C30.8597 20.5486 30.6776 20.7355 30.5297 20.9484L30.4734 21.0656L30.4688 21.0938V21.1078L30.4828 21.1547C30.4984 21.2016 30.5547 21.2844 30.6516 21.4031C31.0133 21.7822 31.4425 22.0906 31.9172 22.3125C33.2344 22.9688 35.2031 23.4375 37.5 23.4375C39.8063 23.4375 41.775 22.9688 43.0781 22.3125C43.5545 22.0911 43.9853 21.7827 44.3484 21.4031C44.4272 21.3169 44.4892 21.2168 44.5312 21.1078V21.0656L44.475 20.9484C44.3271 20.7355 44.145 20.5486 43.9359 20.3953C42.1781 19.05 39.8484 16.7719 39.8484 13.5094V11.7188C39.8484 11.098 40.0947 10.5025 40.5332 10.0631C40.9718 9.62372 41.5667 9.37624 42.1875 9.375H53.4141C54.3947 9.37498 55.3646 9.58011 56.2613 9.97721C57.158 10.3743 57.9617 10.9546 58.6207 11.6808C59.2798 12.407 59.7797 13.263 60.0883 14.1939C60.3969 15.1247 60.5073 16.1098 60.4125 17.0859L59.2734 30.4688H60.3844C61.2984 30.4688 62.3531 29.7797 63.5484 28.2187C64.5328 26.9344 66.0234 25.7812 67.9688 25.7812C70.6313 25.7812 72.4078 27.8766 73.3781 29.8219C74.4234 31.9078 75 34.6266 75 37.5C75 40.3734 74.4234 43.0922 73.3781 45.1781C72.4078 47.1234 70.6313 49.2188 67.9688 49.2188C66.0234 49.2188 64.5328 48.0656 63.5484 46.7812C62.3531 45.2203 61.2984 44.5312 60.3844 44.5312H59.2734L60.4125 57.9141C60.5073 58.8901 60.3969 59.8753 60.0883 60.8061C59.7797 61.737 59.2798 62.593 58.6207 63.3192C57.9617 64.0454 57.158 64.6257 56.2613 65.0228C55.3646 65.4199 54.3947 65.625 53.4141 65.625H42.1875C41.5659 65.625 40.9698 65.3781 40.5302 64.9385C40.0907 64.499 39.8438 63.9029 39.8438 63.2812V61.4906C39.8438 58.2281 42.1734 55.95 43.9312 54.6047C44.1403 54.4514 44.3225 54.2645 44.4703 54.0516L44.5266 53.9344L44.5312 53.9062V53.8922C44.4898 53.7816 44.4277 53.6798 44.3484 53.5922C43.9863 53.2148 43.5571 52.908 43.0828 52.6875C41.7656 52.0312 39.7969 51.5625 37.5 51.5625C35.2031 51.5625 33.225 52.0312 31.9219 52.6875C31.4455 52.9089 31.0147 53.2173 30.6516 53.5969C30.5728 53.6831 30.5108 53.7832 30.4688 53.8922V53.9062L30.4734 53.9344L30.5297 54.0516C30.6047 54.1781 30.7641 54.3703 31.0687 54.6047C32.8266 55.95 35.1562 58.2281 35.1562 61.4906V63.2812C35.1562 63.9029 34.9093 64.499 34.4698 64.9385C34.0302 65.3781 33.4341 65.625 32.8125 65.625H21.5859C20.6053 65.625 19.6354 65.4199 18.7387 65.0228C17.842 64.6257 17.0383 64.0454 16.3793 63.3192C15.7202 62.593 15.2203 61.737 14.9117 60.8061C14.6031 59.8753 14.4927 58.8901 14.5875 57.9141L15.7312 44.5312H14.6156C13.7016 44.5312 12.6469 45.2203 11.4516 46.7812C10.4672 48.0656 8.97656 49.2188 7.03125 49.2188C4.36875 49.2188 2.59219 47.1234 1.62187 45.1781C0.576562 43.0922 0 40.3734 0 37.5C0 34.6266 0.576562 31.9078 1.62187 29.8219C2.59219 27.8766 4.36875 25.7812 7.03125 25.7812C8.97656 25.7812 10.4672 26.9344 11.4516 28.2187C12.6469 29.7797 13.7016 30.4688 14.6156 30.4688H15.7312L14.5875 17.0859ZM21.5859 14.0625C21.2582 14.0622 20.934 14.1306 20.6343 14.2633C20.3347 14.3961 20.0662 14.5902 19.8462 14.8331C19.6262 15.0761 19.4596 15.3625 19.3572 15.6738C19.2548 15.9852 19.2188 16.3145 19.2516 16.6406L19.2562 16.6734L20.6156 32.6109C20.6435 32.9345 20.6039 33.2602 20.4993 33.5676C20.3947 33.875 20.2273 34.1573 20.0079 34.3967C19.7884 34.636 19.5216 34.8271 19.2243 34.9578C18.9271 35.0886 18.606 35.1562 18.2813 35.1562H14.6156C11.3531 35.1562 9.075 32.8266 7.72969 31.0687C7.57639 30.8597 7.38948 30.6776 7.17656 30.5297L7.05938 30.4734L7.03125 30.4688H7.01719C6.90656 30.5102 6.80477 30.5723 6.71719 30.6516C6.33977 31.0137 6.033 31.4429 5.8125 31.9172C5.15625 33.2344 4.6875 35.2031 4.6875 37.5C4.6875 39.7969 5.15625 41.775 5.8125 43.0781C6.14063 43.7344 6.46875 44.1328 6.72188 44.3484C6.80807 44.4272 6.90822 44.4892 7.01719 44.5312H7.03125L7.05938 44.5266L7.17656 44.4703C7.38948 44.3225 7.57639 44.1403 7.72969 43.9312C9.075 42.1734 11.3531 39.8438 14.6156 39.8438H18.2813C18.6055 39.8439 18.9263 39.9113 19.2231 40.0418C19.52 40.1723 19.7866 40.363 20.006 40.6018C20.2254 40.8405 20.3929 41.1223 20.4978 41.4291C20.6028 41.736 20.6429 42.0612 20.6156 42.3844L19.2562 58.3594C19.2235 58.6851 19.2594 59.0141 19.3615 59.3251C19.4637 59.6361 19.6298 59.9222 19.8493 60.1651C20.0688 60.408 20.3367 60.6022 20.6358 60.7353C20.9349 60.8683 21.2586 60.9372 21.5859 60.9375H30.3891C30.1641 60.1594 29.475 59.2875 28.2187 58.3266C26.9344 57.3422 25.7812 55.8516 25.7812 53.9062C25.7812 51.2437 27.8766 49.4672 29.8219 48.4969C31.9078 47.4516 34.6266 46.875 37.5 46.875C40.3734 46.875 43.0922 47.4516 45.1781 48.4969C47.1234 49.4672 49.2188 51.2437 49.2188 53.9062C49.2188 55.8516 48.0656 57.3422 46.7812 58.3266C45.525 59.2875 44.8359 60.1547 44.6109 60.9375H53.4141C53.7418 60.9378 54.066 60.8694 54.3657 60.7367C54.6653 60.6039 54.9338 60.4098 55.1538 60.1669C55.3738 59.9239 55.5404 59.6375 55.6428 59.3262C55.7452 59.0148 55.7812 58.6855 55.7484 58.3594L55.7438 58.3266L54.3844 42.3891C54.3565 42.0655 54.3961 41.7398 54.5007 41.4324C54.6053 41.125 54.7727 40.8427 54.9921 40.6033C55.2116 40.364 55.4784 40.1729 55.7757 40.0422C56.0729 39.9114 56.394 39.8438 56.7188 39.8438H60.3844C63.6469 39.8438 65.925 42.1734 67.2703 43.9312C67.5047 44.2359 67.6969 44.3953 67.8234 44.4703L67.9406 44.5266L67.9688 44.5312H67.9828C68.0934 44.4898 68.1952 44.4277 68.2828 44.3484C68.6602 43.9863 68.967 43.5571 69.1875 43.0828C69.8438 41.7703 70.3125 39.8016 70.3125 37.5C70.3125 35.1984 69.8438 33.225 69.1875 31.9219C68.9661 31.4455 68.6577 31.0147 68.2781 30.6516C68.1919 30.5728 68.0918 30.5108 67.9828 30.4688H67.9688L67.9406 30.4734L67.8234 30.5297C67.6105 30.6776 67.4236 30.8597 67.2703 31.0687C65.925 32.8266 63.6469 35.1562 60.3844 35.1562H56.7188C56.394 35.1562 56.0729 35.0886 55.7757 34.9578C55.4784 34.8271 55.2116 34.636 54.9921 34.3967C54.7727 34.1573 54.6053 33.875 54.5007 33.5676C54.3961 33.2602 54.3565 32.9345 54.3844 32.6109L55.7438 16.6406C55.7765 16.3149 55.7406 15.9859 55.6385 15.6749C55.5363 15.3639 55.3702 15.0778 55.1507 14.8349C54.9312 14.592 54.6633 14.3978 54.3642 14.2647C54.0651 14.1317 53.7414 14.0628 53.4141 14.0625H44.6109C44.8359 14.8406 45.525 15.7125 46.7812 16.6734C48.0656 17.6578 49.2188 19.1484 49.2188 21.0938C49.2188 23.7563 47.1234 25.5328 45.1781 26.5031C43.0922 27.5484 40.3734 28.125 37.5 28.125C34.6266 28.125 31.9078 27.5484 29.8219 26.5031C27.8766 25.5328 25.7812 23.7563 25.7812 21.0938C25.7812 19.1484 26.9344 17.6578 28.2187 16.6734C29.475 15.7125 30.1641 14.8453 30.3891 14.0625H21.5859Z" fill="#F9843B"/>
</svg>
